<svg width="48" height="48" viewBox="0 0 48 48" fill="none" xmlns="[http://www.w3.org/2000/svg](http://www.w3.org/2000/svg)">
<g clip-path="url(#clip0_365_664)">
<path d="M9.75 21H2.25C1.00734 21 0 22.0073 0 23.25V45.75C0 46.9927 1.00734 48 2.25 48H9.75C10.9927 48 12 46.9927 12 45.75V23.25C12 22.0073 10.9927 21 9.75 21ZM6 44.25C4.75734 44.25 3.75 43.2427 3.75 42C3.75 40.7573 4.75734 39.75 6 39.75C7.24266 39.75 8.25 40.7573 8.25 42C8.25 43.2427 7.24266 44.25 6 44.25ZM36 7.63613C36 11.6126 33.5653 13.8431 32.8803 16.5H42.4168C45.5478 16.5 47.9853 19.1012 47.9999 21.9467C48.0078 23.6284 47.2925 25.4388 46.1775 26.5589L46.1672 26.5692C47.0893 28.7571 46.9394 31.8227 45.2946 34.0194C46.1084 36.4471 45.2881 39.4292 43.7587 41.0279C44.1617 42.6777 43.9691 44.0818 43.1824 45.2122C41.2689 47.9613 36.5265 48 32.5162 48L32.2494 47.9999C27.7225 47.9983 24.0176 46.3501 21.0407 45.0257C19.5447 44.3602 17.5887 43.5363 16.1047 43.509C15.4915 43.4978 15 42.9974 15 42.3842V22.3433C15 22.0433 15.1202 21.7553 15.3336 21.5444C19.0474 17.8747 20.6443 13.9894 23.6883 10.9402C25.0762 9.54975 25.5809 7.44937 26.0689 5.41819C26.4858 3.68372 27.3578 0 29.25 0C31.5 0 36 0.75 36 7.63613Z" fill="#2C9C2A"/>
</g>
<defs>
<clipPath id="clip0_365_664">
<rect width="48" height="48" fill="white"/>
</clipPath>
</defs>
</svg>